<svg xmlns="http://www.w3.org/2000/svg" xmlns:xlink="http://www.w3.org/1999/xlink" width="156" height="32" viewBox="0 0 156 32">
    <defs>
        <path id="a" d="M0 31.316h156v-31H0z"/>
    </defs>
    <g fill="none" fill-rule="evenodd">
        <path fill="#05344C" d="M120 14.277s.392-.961 4.908-.961c2.696 0 3.676.96 3.676.96s1.443-.96 4.147-.96c1.658 0 2.659.533 3.182.96.698.572 1.08 1.458 1.087 2.338v8.702h-2.255v-7.649a3.689 3.689 0 0 0-.167-1.053c-.207-.711-.7-1.153-1.447-1.343-.968-.246-2.386-.09-3.278.376v9.669h-2.249v-7.092s-.088-1.104-.242-1.644a1.708 1.708 0 0 0-1.246-1.232c-1.302-.355-2.565-.165-3.874.299v9.669H120v-11.04zM103.69 13.316l2.31.014v11.426s-1.507.544-5.634.56a4.94 4.94 0 0 1-.401-.015c-.546-.042-1.093-.12-1.614-.314-1.384-.515-2.351-1.642-2.351-3.54V13.33h2.307s.003 4.919.007 7.044c.001.567.067 1.122.212 1.675.193.732.7 1.143 1.404 1.324.835.215 3.353.121 3.76-.15v-9.907zM75.227 12.904h3.063v1.816h-3.063v10.596h-2.253V14.72H71v-1.816h1.974l-.002-.571c.03-.804.069-1.603.126-2.41.241-3.413 2.468-4.64 4.535-4.606H79v2.076l-.938-.001c-1.486-.034-2.185.873-2.581 2.064-.205.618-.243 1.277-.247 1.932-.003.475-.007.956-.007 1.516M112.31 25.316c-.756 0-1.555-.005-2.31-.005V14.277c.604-.286 1.28-.458 1.956-.62.811-.194 1.642-.342 2.476-.341.973 0 1.936.074 2.568.336v1.78c-1.552-.497-3.24-.461-4.69.215v9.669z"/>
        <path fill="#0082AF" d="M43.346 20.493c-.458 1.509-1.52 2.38-3.003 2.759-.79.201-1.598.14-2.401.132-.217-.002-.41-.09-.66-.193V14.56s.199-.189.816-.375a4.81 4.81 0 0 1 2.687-.022c1.495.414 2.336 1.485 2.686 2.968a6.397 6.397 0 0 1-.125 3.363m.437-7.32c-1.471-.979-3.092-1.237-4.86-.948-.533.087-1.031.193-1.64.308V5.316H35v19.566s1.885.435 2.688.434c.76 0 1.517-.011 2.28-.087 1.19-.118 2.288-.465 3.286-1.086 1.432-.89 2.201-2.239 2.542-3.903.519-2.526.117-5.649-2.013-7.067"/>
        <mask id="b" fill="#fff">
            <use xlink:href="#a"/>
        </mask>
        <path fill="#0082AF" d="M50 11.316h2v-3h-2zM50 25.316h2v-12h-2z" mask="url(#b)"/>
        <path fill="#05344C" d="M142 11.316h2v-3h-2zM142 25.316h2v-12h-2zM88.983 21.971c-.727 1.352-2.222 1.808-3.594 1.598-1.672-.255-2.627-1.252-2.914-2.927-.181-1.057-.16-2.108.138-3.137.271-.935.785-1.743 1.824-2.143 1.718-.661 3.956-.265 4.741 1.744.285.727.385 1.48.378 2.495-.025.654-.124 1.537-.573 2.37M86 13.316c-3.75-.014-5.936 2.189-5.999 6.054-.059 3.608 2.13 5.898 5.684 5.945.106.002.21 0 .315-.001.104.002.209.003.315.001 3.554-.047 5.743-2.337 5.684-5.945-.063-3.865-2.25-6.068-5.999-6.054M103.69 13.316l2.31.013v11.397c-.36.242-.863.247-1.263.303-1.507.212-3.026.352-4.55.257-.62-.04-1.245-.11-1.836-.33-1.384-.512-2.151-1.472-2.266-2.906-.015-.181-.082-.441-.085-.623v-8.098h2.307s.003 4.907.007 7.027c.001.565.067 1.12.212 1.671.193.73.7 1.14 1.404 1.32.835.215 3.353.121 3.76-.15v-9.881zM155.569 14.039v1.817l-.729-.342a4.891 4.891 0 0 0-3.038-.371c-.878.166-1.418.761-1.393 1.489.017.486.338.78.74 1.014.395.228.808.434 1.231.613.657.279 1.297.583 1.913.929 1.15.645 1.727 1.63 1.706 2.805-.02 1.23-.695 2.198-1.937 2.796-1.14.55-2.368.571-3.612.495-.837-.052-2.416-.606-2.416-.606v-2.08l.481.266c.92.55 1.927.792 3.028.736a3.473 3.473 0 0 0 1.164-.28c1.047-.435 1.108-1.579.435-2.23-.326-.314-.733-.525-1.15-.72-.793-.373-1.598-.721-2.367-1.139-2.134-1.158-2.18-4.03-.054-5.2 1.171-.645 2.457-.823 3.81-.657.487.06.971.13 1.43.29.235.082.758.375.758.375" mask="url(#b)"/>
        <path fill="#0082AF" d="M64.984 21.971c-.728 1.352-2.223 1.808-3.595 1.598-1.672-.255-2.627-1.252-2.914-2.927-.181-1.057-.159-2.108.139-3.137.27-.935.784-1.743 1.823-2.143 1.718-.661 3.956-.265 4.741 1.744.285.727.385 1.48.378 2.495-.025.654-.124 1.537-.572 2.37M62 13.316c-3.75-.014-5.936 2.189-5.999 6.054-.058 3.608 2.13 5.898 5.684 5.945.106.002.211 0 .315-.001.104.002.209.003.315.001 3.553-.047 5.743-2.337 5.684-5.945-.063-3.865-2.25-6.068-6-6.054" mask="url(#b)"/>
        <path fill="#05344C" d="M10.927 10.941a1 1 0 1 0-1.854.75 1 1 0 0 0 1.854-.75M22.93 12.948a1 1 0 1 0-1.86.735 1 1 0 0 0 1.86-.735" mask="url(#b)"/>
        <path fill="#0082AF" d="M19.692 7.588v3.234h-1.617V5.32A2.582 2.582 0 0 0 15.5 2.746a2.585 2.585 0 0 0-2.575 2.574V10.021c0 .119-.007.237-.02.353a3.278 3.278 0 0 1-.646-.503 3.209 3.209 0 0 1-.951-2.283v-3.22a3.201 3.201 0 0 1 .222-1.172c.16-.41.406-.788.729-1.11a3.211 3.211 0 0 1 2.284-.952h1.914c.86 0 1.671.338 2.284.951a3.21 3.21 0 0 1 .951 2.283v3.22zm0 5.524v3.666a.81.81 0 0 1-1.617 0V11.63h1.617v1.482zm-2.426-2.393v.103h-2.723a3.22 3.22 0 0 1-.81-.103V5.32a1.768 1.768 0 0 1 3.532 0v5.398zm9.69.103h-6.455V4.358A4.055 4.055 0 0 0 16.457.316h-1.914a4.057 4.057 0 0 0-4.044 4.042v3.23c0 .905.301 1.742.809 2.418a4.091 4.091 0 0 0 1.399 1.18 3.205 3.205 0 0 1-.733 1.118 3.275 3.275 0 0 1-1.475.848 3.22 3.22 0 0 1-.809.103H4.901a2.582 2.582 0 0 0-2.575 2.574 2.582 2.582 0 0 0 2.575 2.574H14.245c.78.05 1.508.38 2.07.942.202.203.374.427.514.667h-.174a3.777 3.777 0 0 0-.2-.005h-1.914c-.067 0-.133.001-.199.005H4.044c-.86 0-1.671-.338-2.285-.95a3.21 3.21 0 0 1-.95-2.284v-1.914c0-.86.337-1.67.95-2.283a3.212 3.212 0 0 1 2.284-.95h4.379a1.075 1.075 0 0 1 0-.81H4.043A4.055 4.055 0 0 0 0 14.864v1.915a4.055 4.055 0 0 0 4.043 4.042h12.589c.186.01.37.037.548.078.056.237.086.482.086.73V26.323a1.768 1.768 0 0 1-2.38 1.655 1.769 1.769 0 0 1-1.152-1.655v-3.076a1.62 1.62 0 0 0-2.426-1.399 1.612 1.612 0 0 0-.809 1.398v.752l-.001.052v3.23a4.041 4.041 0 0 0 .244 1.38h.003a4.06 4.06 0 0 0 3.798 2.657h1.914a4.06 4.06 0 0 0 3.915-3.032 4.01 4.01 0 0 0 .127-1.005v-3.23c0-.904-.3-1.741-.807-2.416v5.64a3.218 3.218 0 0 1-.952 2.29 3.213 3.213 0 0 1-2.284.95H14.54c-.86 0-1.67-.338-2.284-.95a3.279 3.279 0 0 1-.521-.681h.004a3.188 3.188 0 0 1-.432-1.608v-4.028a.808.808 0 0 1 1.617 0v3.079a2.582 2.582 0 0 0 2.575 2.574 2.582 2.582 0 0 0 2.575-2.574V21.253c.24.14.463.31.665.513a3.21 3.21 0 0 1 .95 2.283l.002-2.416a4.085 4.085 0 0 0-1.863-1.385 4.043 4.043 0 0 0-1.369-1.845 4.018 4.018 0 0 0-2.429-.817H12.117c-.081 0-.162.004-.242.008H4.901a1.768 1.768 0 0 1-1.766-1.765c0-.973.792-1.766 1.766-1.766H9.69a4.018 4.018 0 0 0 1.618-.34 4.058 4.058 0 0 0 2.15-2.242 3.957 3.957 0 0 0 1.085.15h2.723v5.147c0 .297.082.576.223.816.142.24.344.442.586.582a1.604 1.604 0 0 0 1.617 0c.241-.14.444-.341.586-.582.141-.24.223-.519.223-.816V11.63h6.455c.86 0 1.671.338 2.284.95a3.21 3.21 0 0 1 .951 2.284v1.914c0 .86-.337 1.67-.95 2.283a3.212 3.212 0 0 1-2.285.95h-4.838a.809.809 0 1 1-.107-1.609h3.899a2.582 2.582 0 0 0 2.574-2.573 2.582 2.582 0 0 0-2.574-2.574h-2.52a1.07 1.07 0 0 1-.006.808h2.526c.973 0 1.766.793 1.766 1.766s-.793 1.765-1.766 1.765h-1.365a1.575 1.575 0 0 0-.158-.008h-2.269a1.622 1.622 0 0 0-1.617 1.617 1.621 1.621 0 0 0 1.617 1.617h4.839A4.055 4.055 0 0 0 31 16.778v-1.914a4.055 4.055 0 0 0-4.044-4.042z" mask="url(#b)"/>
        <path fill="#05344C" d="M13.93 23.948a1 1 0 1 0-1.86.735 1 1 0 0 0 1.86-.735" mask="url(#b)"/>
    </g>
</svg>
